<?xml version="1.0" encoding="UTF-8"?><svg id="a" xmlns="http://www.w3.org/2000/svg" width="74.19" height="21.32" viewBox="0 0 74.19 21.32"><defs><style>.b{fill-rule:evenodd;}.b,.c{fill:#fff;stroke-width:0px;}.d{isolation:isolate;}</style></defs><path class="b" d="M26.34,0v12.67h19V0h-19ZM43.9.8l-8.07,6.14L27.76.8h16.14ZM44.54,11.88h-17.41V1.29l5.69,4.35-3.36,3.81.1.1,3.9-3.46,2.38,1.83,2.38-1.83,3.91,3.46.1-.1-3.36-3.81,5.69-4.35v10.59h-.02Z"/><g class="d"><path class="c" d="M.92,21.26h-.92v-4.9h.92v4.9Z"/><path class="c" d="M4.24,19.87c0,.52-.1.88-.31,1.09-.24.24-.59.36-1.03.36s-.79-.12-1.02-.36c-.21-.22-.31-.58-.31-1.09h.92c0,.22.03.37.1.45.07.08.17.12.31.12.14,0,.25-.04.31-.12.06-.08.1-.22.1-.41,0-.23-.03-.38-.08-.46-.05-.08-.17-.16-.35-.23l-.61-.25c-.24-.11-.41-.25-.51-.42-.1-.17-.15-.45-.15-.81,0-.47.14-.83.42-1.09.23-.21.52-.31.87-.31.41,0,.71.1.93.31.24.23.36.61.36,1.14h-.92c0-.22-.03-.37-.08-.44-.06-.08-.16-.12-.29-.12s-.22.04-.28.13c-.06.07-.08.19-.08.35s.02.27.06.33c.04.06.13.13.28.19l.61.25c.29.13.49.29.6.48s.16.5.16.94Z"/><path class="c" d="M7.53,19.87c-.02.48-.16.84-.42,1.1-.24.23-.54.35-.91.35-.43,0-.78-.17-1.04-.5-.15-.19-.25-.44-.29-.73-.04-.3-.06-.72-.06-1.28s.02-.98.06-1.28c.04-.3.14-.54.29-.73.26-.33.6-.5,1.04-.5.37,0,.67.12.91.35.26.26.4.62.42,1.09h-.92c0-.17-.03-.3-.08-.38-.06-.12-.17-.19-.33-.19s-.27.06-.33.19c-.09.17-.13.65-.13,1.43s.04,1.26.13,1.43c.06.13.18.19.33.19s.27-.06.33-.19c.04-.08.07-.2.08-.38h.92Z"/><path class="c" d="M10.99,21.26h-.92l-.59-1.89h-.34v1.89h-.92v-4.9h1.35c.49,0,.83.12,1.02.37.19.25.29.62.29,1.12,0,.31-.04.58-.12.79s-.23.4-.47.54l.7,2.08ZM9.96,17.85c0-.12,0-.22-.02-.29-.01-.08-.05-.15-.11-.22-.06-.07-.15-.1-.27-.1h-.42v1.23h.42c.09,0,.16-.02.22-.05.06-.03.1-.09.12-.16.02-.07.04-.13.04-.19s.01-.13.01-.22Z"/><path class="c" d="M12.61,21.26h-.92v-4.9h.92v4.9Z"/><path class="c" d="M16.29,16.36l-1.1,4.9h-1.02l-1.09-4.9h1.07l.53,3.46.54-3.46h1.07Z"/><path class="c" d="M17.62,21.26h-.92v-4.9h.92v4.9Z"/><path class="c" d="M20.82,17.24h-.88v4.02h-.92v-4.02h-.88v-.88h2.69v.88Z"/><path class="c" d="M22.26,21.26h-.92v-4.9h.92v4.9Z"/><path class="c" d="M26.5,21.26h-2.26v-4.9h2.26v.88h-1.34v1.11h1.16v.88h-1.16v1.15h1.34v.88Z"/><path class="c" d="M31.04,21.26h-.92l-.59-1.89h-.34v1.89h-.92v-4.9h1.35c.49,0,.83.12,1.02.37.19.25.29.62.29,1.12,0,.31-.04.58-.12.79s-.23.4-.47.54l.7,2.08ZM30,17.85c0-.12,0-.22-.02-.29-.01-.08-.05-.15-.11-.22-.06-.07-.15-.1-.27-.1h-.42v1.23h.42c.09,0,.16-.02.22-.05.06-.03.1-.09.12-.16.02-.07.04-.13.04-.19s.01-.13.01-.22Z"/><path class="c" d="M32.66,21.26h-.92v-4.9h.92v4.9Z"/><path class="c" d="M35.98,19.87c0,.52-.1.88-.31,1.09-.24.24-.59.36-1.03.36s-.79-.12-1.02-.36c-.21-.22-.31-.58-.31-1.09h.92c0,.22.03.37.1.45.07.08.17.12.31.12.14,0,.25-.04.31-.12.06-.08.1-.22.1-.41,0-.23-.03-.38-.08-.46-.05-.08-.17-.16-.35-.23l-.61-.25c-.24-.11-.41-.25-.51-.42-.1-.17-.15-.45-.15-.81,0-.47.14-.83.42-1.09.23-.21.52-.31.87-.31.41,0,.71.1.93.31.24.23.36.61.36,1.14h-.92c0-.22-.03-.37-.08-.44-.06-.08-.16-.12-.29-.12s-.22.04-.28.13c-.06.07-.08.19-.08.35s.02.27.06.33c.04.06.13.13.28.19l.61.25c.29.13.49.29.6.48s.16.5.16.94Z"/><path class="c" d="M39.05,16.76c.2.26.3.65.3,1.17s-.1.9-.3,1.17-.55.4-1.04.4h-.39v1.78h-.92v-4.9h1.33c.49,0,.83.13,1.03.4ZM38.42,18.17c0-.06,0-.14,0-.24s0-.18,0-.24c0-.06-.02-.13-.05-.21-.03-.08-.07-.13-.13-.17s-.14-.06-.24-.06h-.38v1.36h.38c.1,0,.18-.02.24-.06s.11-.1.13-.17c.03-.08.04-.14.05-.21Z"/><path class="c" d="M43.19,21.26h-.94l-.2-.76h-1.17l-.16.76h-1.02l1.18-4.9h1.04l1.26,4.9ZM41.83,19.62l-.38-1.82-.38,1.82h.76Z"/><path class="c" d="M46.39,21.26h-.92l-.59-1.89h-.34v1.89h-.92v-4.9h1.34c.49,0,.83.12,1.02.37.19.25.29.62.29,1.12,0,.31-.04.58-.12.79s-.23.4-.46.54l.7,2.08ZM45.35,17.85c0-.12,0-.22-.02-.29-.01-.08-.05-.15-.11-.22-.06-.07-.15-.1-.27-.1h-.42v1.23h.42c.09,0,.16-.02.22-.05s.1-.09.12-.16c.02-.07.04-.13.05-.19,0-.06,0-.13,0-.22Z"/><path class="c" d="M50.5,21.26h-.92v-2.55l-.54,1.68h-.5l-.53-1.67v2.55h-.92v-4.9h.81l.89,2.4.89-2.4h.82v4.9Z"/><path class="c" d="M52.28,21.26h-.92v-4.9h.92v4.9Z"/><path class="c" d="M56.24,21.26h-.94l-.2-.76h-1.17l-.16.76h-1.02l1.18-4.9h1.04l1.26,4.9ZM54.88,19.62l-.38-1.82-.38,1.82h.76Z"/><path class="c" d="M58.75,21.26h-.92v-4.9h.92v4.9Z"/><path class="c" d="M61.82,21.26h-2.26v-4.9h.92v4.02h1.34v.88Z"/><path class="c" d="M65.34,21.26h-.92v-3.82l-.75.54v-1.03l.75-.58h.92v4.9Z"/><path class="c" d="M68.75,20.12c0,.38-.11.67-.34.88-.22.21-.51.32-.87.32s-.66-.11-.88-.32c-.22-.21-.34-.5-.34-.88v-2.62c0-.38.11-.67.34-.88.22-.21.51-.32.88-.32s.66.11.87.32c.22.21.34.51.34.88v2.62ZM67.83,20.15v-2.68c0-.11-.03-.19-.08-.25-.05-.06-.12-.09-.21-.09s-.16.03-.21.09c-.05.06-.08.14-.08.25v2.68c0,.11.03.19.08.25.05.06.12.09.21.09s.16-.03.21-.09c.05-.06.08-.14.08-.25Z"/><path class="c" d="M71.25,17.97c0,.29-.09.52-.28.67-.19.16-.42.23-.7.23s-.51-.08-.7-.23-.28-.38-.28-.67v-.75c0-.29.09-.52.28-.67s.42-.23.7-.23.51.08.7.23c.19.16.28.38.28.67v.75ZM70.51,17.94v-.71c0-.18-.08-.27-.24-.27s-.24.09-.24.27v.71c0,.18.08.27.24.27s.24-.09.24-.27ZM72.95,16.36l-1.71,4.9h-.7l1.71-4.9h.7ZM74.19,20.41c0,.29-.09.52-.28.67-.19.16-.42.23-.7.23s-.51-.08-.7-.23c-.19-.16-.28-.38-.28-.67v-.75c0-.29.09-.52.28-.67.19-.16.42-.23.7-.23s.51.08.7.23c.19.16.28.38.28.67v.75ZM73.44,20.39v-.71c0-.18-.08-.27-.24-.27s-.24.09-.24.27v.71c0,.18.08.27.24.27s.24-.09.24-.27Z"/></g></svg>